<!DOCTYPE svg PUBLIC "-//W3C//DTD SVG 1.1//EN" "http://www.w3.org/Graphics/SVG/1.1/DTD/svg11.dtd">
<!-- Uploaded to: SVG Repo, www.svgrepo.com, Transformed by: SVG Repo Mixer Tools -->
<svg version="1.0" id="Layer_1" xmlns="http://www.w3.org/2000/svg" xmlns:xlink="http://www.w3.org/1999/xlink" width="64px" height="64px" viewBox="0 0 64 64" enable-background="new 0 0 64 64" xml:space="preserve" fill="#f0c417" stroke="#f0c417">
<g id="SVGRepo_bgCarrier" stroke-width="0"/>
<g id="SVGRepo_tracerCarrier" stroke-linecap="round" stroke-linejoin="round"/>
<g id="SVGRepo_iconCarrier"> <g> <path fill="#f0c417" d="M61,29H49c-1.657,0-3,1.344-3,3s1.343,3,3,3h12c1.657,0,3-1.344,3-3S62.657,29,61,29z"/> <path fill="#f0c417" d="M59.312,44.57l-11.275-4.104c-1.559-0.566-3.279,0.236-3.846,1.793c-0.566,1.555,0.235,3.277,1.793,3.844 l11.276,4.105c1.558,0.566,3.278-0.238,3.845-1.793C61.672,46.859,60.87,45.137,59.312,44.57z"/> <path fill="#f0c417" d="M48.036,23.531l11.276-4.104c1.557-0.566,2.359-2.289,1.793-3.843c-0.566-1.558-2.288-2.362-3.846-1.796 l-11.275,4.106c-1.559,0.566-2.36,2.289-1.794,3.846C44.757,23.295,46.479,24.098,48.036,23.531z"/> <path fill="#f0c417" d="M8,48c1.257,0,2.664,0,4,0V16c-1.342,0.002-2.747,0.002-4,0.002V48z"/> <path fill="#f0c417" d="M0,20.002V44c0,2.211,1.789,4,4,4c0,0,0.797,0,2,0V16.002c-1.204,0-2,0-2,0C1.789,16.002,0,17.791,0,20.002 z"/> <path fill="#f0c417" d="M37.531,0.307c-1.492-0.625-3.211-0.277-4.359,0.867L18.859,15.486c0,0-0.422,0.515-1.359,0.515 c-0.365,0-1.75,0-3.5,0v32c1.779,0,3.141,0,3.344,0c0.656,0,1.107,0.107,1.671,0.67c0.563,0.564,14.157,14.158,14.157,14.158 C33.938,63.594,34.961,64,36,64c0.516,0,1.035-0.098,1.531-0.305C39.027,63.078,40,61.617,40,60V4.002 C40,2.385,39.027,0.924,37.531,0.307z"/> </g> </g>
</svg>